<svg data-name="8751cf90-dbd7-4396-9b19-629a489cc0ea" xmlns="http://www.w3.org/2000/svg" width="45.2" height="35" viewBox="0 0 45.2 35">
    <path d="M1.7 1h41.8c.7 0 .7 1.3.7 3v27c0 3-.3 3-.7 3H1.7C1 34 1 32.7 1 31V4c0-1.7 0-3 .7-3z" fill="none" stroke="#fff" stroke-width="2"/>
    <path d="M31.1 11.2h-17a.9.9 0 0 1-.9-.9v-.4a.9.9 0 0 1 .9-.9h17a.9.9 0 0 1 .9.9v.4a.9.9 0 0 1-.9.9zm-17 5h13.4a.9.9 0 0 1 .9.9v.4a.9.9 0 0 1-.9.9H14.1a.9.9 0 0 1-.9-.9v-.4a.9.9 0 0 1 .9-.9zm0 7.2h9.7a.9.9 0 0 1 .9.9v.4a.9.9 0 0 1-.9.9h-9.7a.9.9 0 0 1-.9-.9v-.4a.9.9 0 0 1 .9-.9z" fill="#fff"/>
</svg>
